<svg width="93" height="92" viewBox="0 0 93 92" fill="none" xmlns="http://www.w3.org/2000/svg">
<path d="M12.002 54.7583C12.002 54.7583 20.1922 67.333 35.8902 75.9995C38.6203 74.8099 60.8023 64.6142 91.8571 66.3135C89.8095 65.2939 48.1757 45.9219 12.002 54.7583Z" fill="white"/>
<path d="M92.8814 63.1437C56.1958 39.3536 9.61367 48.1899 9.61367 48.1899C9.61367 48.1899 8.5643 46.285 7.27262 43.9298L0.21875 27.326L0.228988 27.2886C4.15349 26.6089 25.1411 24.5697 55.8546 30.6872C85.715 39.6934 91.1751 58.8955 92.8814 63.1437Z" fill="white"/>
<path d="M32.1611 22.5896C32.1611 22.5896 45.4703 14.603 59.462 19.7008C56.732 23.2694 54.3431 26.3281 54.3431 26.3281C54.3431 26.3281 41.3752 22.9295 32.1611 22.5896Z" fill="white"/>
<path d="M59.2686 27.3279L64.338 21.2104C64.338 21.2104 77.4766 26.4783 82.5955 39.223C74.9171 33.7852 70.7486 31.0664 59.2686 27.3279Z" fill="white"/>
</svg>
